# xmcd
#
# Track frame offsets:
#	150
#	16907
#	32874
#	53651
#	71416
#	90480
#	106288
#	129490
#	152989
#	168945
#
# Disc length: 2476 seconds
#
# Revision: 2
# Processed by: cddbd v1.5.2PL0 Copyright (c) Steve Scherf et al.
# Submitted via: EZCDAudioConverter 7.1.0.1
#
DISCID=7609aa0a
DTITLE=南拳妈妈 - 优的良曲 南搞小孩 CD2
DYEAR=2008
DGENRE=
TTITLE0=初恋粉色系
TTITLE1=What Can I Do
TTITLE2=破晓
TTITLE3=Tonight
TTITLE4=枪与玫瑰
TTITLE5=水晶蜻蜓
TTITLE6=间奏
TTITLE7=第二个爸爸
TTITLE8=吃你煮的鱼
TTITLE9=小时候
EXTD=
EXTT0=
EXTT1=
EXTT2=
EXTT3=
EXTT4=
EXTT5=
EXTT6=
EXTT7=
EXTT8=
EXTT9=
PLAYORDER=
